<mxfile host="app.diagrams.net" modified="2023-03-26T00:58:36.577Z" agent="Mozilla/5.0 (Macintosh; Intel Mac OS X 10_15_7) AppleWebKit/537.36 (KHTML, like Gecko) Chrome/108.0.0.0 Safari/537.36" version="21.1.1" etag="xnp3WPhoRbdRcuwz3Se_" type="github">
  <diagram name="Page-1" id="MSVUoQT6bvGK3L7DLW8m">
    <mxGraphModel>
      <root>
        <mxCell id="0" />
        <mxCell id="1" parent="0" />
      </root>
    </mxGraphModel>
  </diagram>
</mxfile>
